<mxfile host="Electron" modified="2024-04-27T08:37:53.708Z" agent="Mozilla/5.0 (Windows NT 10.0; Win64; x64) AppleWebKit/537.36 (KHTML, like Gecko) draw.io/21.6.8 Chrome/114.0.5735.289 Electron/25.5.0 Safari/537.36" etag="EXCLQ34uD9yKe5x8a7Mw" version="21.6.8" type="device">
  <diagram name="Page-1" id="U1kjA7V-yH_CG9ya77jy">
    <mxGraphModel dx="1509" dy="931" grid="1" gridSize="10" guides="1" tooltips="1" connect="1" arrows="1" fold="1" page="1" pageScale="1" pageWidth="827" pageHeight="1169" math="0" shadow="0">
      <root>
        <mxCell id="0" />
        <mxCell id="1" parent="0" />
        <mxCell id="0wRP0iFc0ELyDWi-N-9Z-1" value="" style="rounded=0;whiteSpace=wrap;html=1;" vertex="1" parent="1">
          <mxGeometry x="150" y="190" width="470" height="300" as="geometry" />
        </mxCell>
        <mxCell id="0wRP0iFc0ELyDWi-N-9Z-2" value="UPLOAD" style="rounded=0;whiteSpace=wrap;html=1;fillColor=#eeeeee;strokeColor=#36393d;" vertex="1" parent="1">
          <mxGeometry x="150" y="190" width="100" height="50" as="geometry" />
        </mxCell>
        <mxCell id="0wRP0iFc0ELyDWi-N-9Z-3" value="DOWNLOAD" style="rounded=0;whiteSpace=wrap;html=1;" vertex="1" parent="1">
          <mxGeometry x="250" y="190" width="100" height="50" as="geometry" />
        </mxCell>
        <mxCell id="0wRP0iFc0ELyDWi-N-9Z-4" value="" style="rounded=0;whiteSpace=wrap;html=1;fillColor=#eeeeee;strokeColor=#36393d;" vertex="1" parent="1">
          <mxGeometry x="150" y="240" width="470" height="210" as="geometry" />
        </mxCell>
        <mxCell id="0wRP0iFc0ELyDWi-N-9Z-5" value="Cancel" style="rounded=1;whiteSpace=wrap;html=1;" vertex="1" parent="1">
          <mxGeometry x="540" y="460" width="70" height="20" as="geometry" />
        </mxCell>
        <mxCell id="0wRP0iFc0ELyDWi-N-9Z-6" value="Ok" style="rounded=1;whiteSpace=wrap;html=1;" vertex="1" parent="1">
          <mxGeometry x="440" y="460" width="90" height="20" as="geometry" />
        </mxCell>
        <mxCell id="0wRP0iFc0ELyDWi-N-9Z-8" value="" style="rounded=0;whiteSpace=wrap;html=1;" vertex="1" parent="1">
          <mxGeometry x="150" y="530" width="470" height="250" as="geometry" />
        </mxCell>
        <mxCell id="0wRP0iFc0ELyDWi-N-9Z-9" value="UPLOAD" style="rounded=0;whiteSpace=wrap;html=1;" vertex="1" parent="1">
          <mxGeometry x="150" y="530" width="100" height="50" as="geometry" />
        </mxCell>
        <mxCell id="0wRP0iFc0ELyDWi-N-9Z-10" value="DOWNLOAD" style="rounded=0;whiteSpace=wrap;html=1;fillColor=#eeeeee;strokeColor=#36393d;" vertex="1" parent="1">
          <mxGeometry x="250" y="530" width="100" height="50" as="geometry" />
        </mxCell>
        <mxCell id="0wRP0iFc0ELyDWi-N-9Z-11" value="" style="rounded=0;whiteSpace=wrap;html=1;fillColor=#eeeeee;strokeColor=#36393d;" vertex="1" parent="1">
          <mxGeometry x="150" y="580" width="470" height="160" as="geometry" />
        </mxCell>
        <mxCell id="0wRP0iFc0ELyDWi-N-9Z-12" value="Cancel" style="rounded=1;whiteSpace=wrap;html=1;" vertex="1" parent="1">
          <mxGeometry x="540" y="750" width="70" height="20" as="geometry" />
        </mxCell>
        <mxCell id="0wRP0iFc0ELyDWi-N-9Z-13" value="Ok" style="rounded=1;whiteSpace=wrap;html=1;" vertex="1" parent="1">
          <mxGeometry x="440" y="750" width="90" height="20" as="geometry" />
        </mxCell>
        <mxCell id="0wRP0iFc0ELyDWi-N-9Z-14" value="" style="rounded=0;whiteSpace=wrap;html=1;" vertex="1" parent="1">
          <mxGeometry x="160" y="280" width="440" height="20" as="geometry" />
        </mxCell>
        <mxCell id="0wRP0iFc0ELyDWi-N-9Z-16" value="New Game:" style="text;html=1;strokeColor=none;fillColor=none;align=left;verticalAlign=middle;whiteSpace=wrap;rounded=0;" vertex="1" parent="1">
          <mxGeometry x="160" y="260" width="100" height="20" as="geometry" />
        </mxCell>
        <mxCell id="0wRP0iFc0ELyDWi-N-9Z-17" value="" style="rounded=0;whiteSpace=wrap;html=1;" vertex="1" parent="1">
          <mxGeometry x="160" y="340" width="440" height="20" as="geometry" />
        </mxCell>
        <mxCell id="0wRP0iFc0ELyDWi-N-9Z-18" value="Existing Game:" style="text;html=1;strokeColor=none;fillColor=none;align=left;verticalAlign=middle;whiteSpace=wrap;rounded=0;" vertex="1" parent="1">
          <mxGeometry x="160" y="320" width="100" height="20" as="geometry" />
        </mxCell>
        <mxCell id="0wRP0iFc0ELyDWi-N-9Z-20" value="" style="rounded=0;whiteSpace=wrap;html=1;" vertex="1" parent="1">
          <mxGeometry x="580" y="340" width="20" height="20" as="geometry" />
        </mxCell>
        <mxCell id="0wRP0iFc0ELyDWi-N-9Z-19" value="" style="triangle;whiteSpace=wrap;html=1;rotation=90;" vertex="1" parent="1">
          <mxGeometry x="585" y="340" width="10" height="20" as="geometry" />
        </mxCell>
        <mxCell id="0wRP0iFc0ELyDWi-N-9Z-21" value="" style="rounded=0;whiteSpace=wrap;html=1;" vertex="1" parent="1">
          <mxGeometry x="160" y="400" width="440" height="20" as="geometry" />
        </mxCell>
        <mxCell id="0wRP0iFc0ELyDWi-N-9Z-23" value="Directory with Saves" style="text;html=1;strokeColor=none;fillColor=none;align=left;verticalAlign=middle;whiteSpace=wrap;rounded=0;" vertex="1" parent="1">
          <mxGeometry x="160" y="380" width="130" height="20" as="geometry" />
        </mxCell>
        <mxCell id="0wRP0iFc0ELyDWi-N-9Z-29" value="" style="rounded=0;whiteSpace=wrap;html=1;" vertex="1" parent="1">
          <mxGeometry x="160" y="625" width="440" height="20" as="geometry" />
        </mxCell>
        <mxCell id="0wRP0iFc0ELyDWi-N-9Z-30" value="" style="rounded=0;whiteSpace=wrap;html=1;" vertex="1" parent="1">
          <mxGeometry x="580" y="625" width="20" height="20" as="geometry" />
        </mxCell>
        <mxCell id="0wRP0iFc0ELyDWi-N-9Z-31" value="" style="triangle;whiteSpace=wrap;html=1;rotation=90;" vertex="1" parent="1">
          <mxGeometry x="585" y="625" width="10" height="20" as="geometry" />
        </mxCell>
        <mxCell id="0wRP0iFc0ELyDWi-N-9Z-32" value="Game:" style="text;html=1;strokeColor=none;fillColor=none;align=left;verticalAlign=middle;whiteSpace=wrap;rounded=0;" vertex="1" parent="1">
          <mxGeometry x="160" y="605" width="60" height="20" as="geometry" />
        </mxCell>
        <mxCell id="0wRP0iFc0ELyDWi-N-9Z-33" value="" style="rounded=0;whiteSpace=wrap;html=1;" vertex="1" parent="1">
          <mxGeometry x="160" y="690" width="440" height="20" as="geometry" />
        </mxCell>
        <mxCell id="0wRP0iFc0ELyDWi-N-9Z-34" value="Directory where Saves will be donwloaded" style="text;html=1;strokeColor=none;fillColor=none;align=left;verticalAlign=middle;whiteSpace=wrap;rounded=0;" vertex="1" parent="1">
          <mxGeometry x="160" y="670" width="240" height="20" as="geometry" />
        </mxCell>
        <mxCell id="0wRP0iFc0ELyDWi-N-9Z-35" value="" style="rounded=0;whiteSpace=wrap;html=1;" vertex="1" parent="1">
          <mxGeometry x="260" y="30" width="250" height="120" as="geometry" />
        </mxCell>
        <mxCell id="0wRP0iFc0ELyDWi-N-9Z-36" value="&lt;font style=&quot;font-size: 16px;&quot;&gt;IPAddress&lt;/font&gt;" style="text;html=1;strokeColor=none;fillColor=none;align=left;verticalAlign=middle;whiteSpace=wrap;rounded=0;" vertex="1" parent="1">
          <mxGeometry x="270" y="40" width="90" height="20" as="geometry" />
        </mxCell>
        <mxCell id="0wRP0iFc0ELyDWi-N-9Z-37" value="" style="rounded=0;whiteSpace=wrap;html=1;" vertex="1" parent="1">
          <mxGeometry x="270" y="90" width="230" height="20" as="geometry" />
        </mxCell>
        <mxCell id="0wRP0iFc0ELyDWi-N-9Z-38" value="Enter the servers ipaddress" style="text;html=1;strokeColor=none;fillColor=none;align=left;verticalAlign=middle;whiteSpace=wrap;rounded=0;" vertex="1" parent="1">
          <mxGeometry x="270" y="70" width="170" height="20" as="geometry" />
        </mxCell>
        <mxCell id="0wRP0iFc0ELyDWi-N-9Z-39" value="Cancel" style="rounded=1;whiteSpace=wrap;html=1;" vertex="1" parent="1">
          <mxGeometry x="420" y="120" width="80" height="20" as="geometry" />
        </mxCell>
        <mxCell id="0wRP0iFc0ELyDWi-N-9Z-40" value="Ok" style="rounded=1;whiteSpace=wrap;html=1;" vertex="1" parent="1">
          <mxGeometry x="340" y="120" width="74" height="20" as="geometry" />
        </mxCell>
        <mxCell id="0wRP0iFc0ELyDWi-N-9Z-41" value="LOG" style="rounded=0;whiteSpace=wrap;html=1;" vertex="1" parent="1">
          <mxGeometry x="350" y="190" width="80" height="50" as="geometry" />
        </mxCell>
        <mxCell id="0wRP0iFc0ELyDWi-N-9Z-42" value="LOG" style="rounded=0;whiteSpace=wrap;html=1;" vertex="1" parent="1">
          <mxGeometry x="350" y="530" width="80" height="50" as="geometry" />
        </mxCell>
        <mxCell id="0wRP0iFc0ELyDWi-N-9Z-43" value="" style="rounded=0;whiteSpace=wrap;html=1;" vertex="1" parent="1">
          <mxGeometry x="150" y="820" width="470" height="300" as="geometry" />
        </mxCell>
        <mxCell id="0wRP0iFc0ELyDWi-N-9Z-44" value="UPLOAD" style="rounded=0;whiteSpace=wrap;html=1;" vertex="1" parent="1">
          <mxGeometry x="150" y="820" width="100" height="50" as="geometry" />
        </mxCell>
        <mxCell id="0wRP0iFc0ELyDWi-N-9Z-45" value="DOWNLOAD" style="rounded=0;whiteSpace=wrap;html=1;" vertex="1" parent="1">
          <mxGeometry x="250" y="820" width="100" height="50" as="geometry" />
        </mxCell>
        <mxCell id="0wRP0iFc0ELyDWi-N-9Z-46" value="Cancel" style="rounded=1;whiteSpace=wrap;html=1;" vertex="1" parent="1">
          <mxGeometry x="540" y="1090" width="70" height="20" as="geometry" />
        </mxCell>
        <mxCell id="0wRP0iFc0ELyDWi-N-9Z-47" value="Ok" style="rounded=1;whiteSpace=wrap;html=1;" vertex="1" parent="1">
          <mxGeometry x="440" y="1090" width="90" height="20" as="geometry" />
        </mxCell>
        <mxCell id="0wRP0iFc0ELyDWi-N-9Z-48" value="LOG" style="rounded=0;whiteSpace=wrap;html=1;fillColor=#eeeeee;strokeColor=#36393d;" vertex="1" parent="1">
          <mxGeometry x="350" y="820" width="80" height="50" as="geometry" />
        </mxCell>
        <mxCell id="0wRP0iFc0ELyDWi-N-9Z-49" value="" style="rounded=0;whiteSpace=wrap;html=1;fillColor=#eeeeee;strokeColor=#36393d;" vertex="1" parent="1">
          <mxGeometry x="150" y="870" width="470" height="210" as="geometry" />
        </mxCell>
        <mxCell id="0wRP0iFc0ELyDWi-N-9Z-50" value="" style="rounded=0;whiteSpace=wrap;html=1;" vertex="1" parent="1">
          <mxGeometry x="160" y="880" width="450" height="190" as="geometry" />
        </mxCell>
        <mxCell id="0wRP0iFc0ELyDWi-N-9Z-51" value="12:12 12.12.12: started upload" style="text;html=1;strokeColor=none;fillColor=none;align=left;verticalAlign=middle;whiteSpace=wrap;rounded=0;" vertex="1" parent="1">
          <mxGeometry x="160" y="880" width="250" height="20" as="geometry" />
        </mxCell>
        <mxCell id="0wRP0iFc0ELyDWi-N-9Z-58" value="12:12 12.12.12: finished upload" style="text;html=1;strokeColor=none;fillColor=none;align=left;verticalAlign=middle;whiteSpace=wrap;rounded=0;" vertex="1" parent="1">
          <mxGeometry x="160" y="900" width="250" height="20" as="geometry" />
        </mxCell>
        <mxCell id="0wRP0iFc0ELyDWi-N-9Z-59" value="12:12 12.12.12: started download" style="text;html=1;strokeColor=none;fillColor=none;align=left;verticalAlign=middle;whiteSpace=wrap;rounded=0;" vertex="1" parent="1">
          <mxGeometry x="160" y="920" width="250" height="20" as="geometry" />
        </mxCell>
      </root>
    </mxGraphModel>
  </diagram>
</mxfile>
